<svg id="Capa_1" data-name="Capa 1" xmlns="http://www.w3.org/2000/svg" viewBox="0 0 151.78 61.13"><defs><style>.cls-1{fill:#58dab4;}</style></defs><title>LogoMaines</title><path class="cls-1" d="M625.39,411.44a2.91,2.91,0,0,1,.66,0c.22,0,.43,0,.65,0a2.5,2.5,0,0,1,.67,0c.24.06.31.28.33.5s0,.41-.16.54a1.22,1.22,0,0,1-.63.05h-1.15a1.28,1.28,0,0,1-.39,0,.38.38,0,0,1-.23-.2s-.06-.32,0-.32C625.11,411.75,625.13,411.5,625.39,411.44Z" transform="translate(-607.11 -353.51)"/><path class="cls-1" d="M638.62,413.67a4.14,4.14,0,0,1,0,.61.38.38,0,0,1-.35.31.9.9,0,0,1-.56-.09.76.76,0,0,1-.19-.52,4.39,4.39,0,0,1,0-.63v-.27a.83.83,0,0,0,0-.35c-.06-.18-.32-.13-.47-.12h-1a.74.74,0,0,0-.3,0c-.16.1-.11.35-.11.49s0,.43,0,.65a1.2,1.2,0,0,1,0,.57c-.09.17-.28.18-.45.18a.64.64,0,0,1-.49-.12,1,1,0,0,1-.15-.55,4.4,4.4,0,0,1,0-.62,3.61,3.61,0,0,0,0-.66,4.49,4.49,0,0,1,0-.64c0-.21,0-.42,0-.63,0-.41,0-.81,0-1.21,0-.18,0-.38.2-.47a.55.55,0,0,1,.26,0,1.51,1.51,0,0,1,.3,0,.36.36,0,0,1,.27.36c0,.21,0,.41,0,.62s0,.41,0,.61.12.3.35.32c.4,0,.81,0,1.22,0,.18,0,.3-.06.32-.26a3.18,3.18,0,0,0,0-.62,1.77,1.77,0,0,1,0-.65.46.46,0,0,1,.26-.41.94.94,0,0,1,.62,0,.46.46,0,0,1,.21.37c0,.06,0,.6,0,.6v0c0,.41,0,.82,0,1.22a4.14,4.14,0,0,1,0,.61c0,.2,0,.41,0,.62A4.46,4.46,0,0,1,638.62,413.67Z" transform="translate(-607.11 -353.51)"/><path class="cls-1" d="M645.14,413.81a1.22,1.22,0,0,1-.07.57.46.46,0,0,1-.46.17,4.68,4.68,0,0,0-.65,0c-.43,0-.87,0-1.3,0h-.61c-.16,0-.42.05-.5-.13a1.3,1.3,0,0,1,0-.59c0-.21,0-.41,0-.62s0-.41,0-.62,0-.41,0-.62a4,4,0,0,1,0-.6c0-.22,0-.44,0-.66s0-.42,0-.63-.07-.43.1-.53.38,0,.54,0l.6,0a7.45,7.45,0,0,0,1.25,0c.31,0,.93-.13,1,.29a1.1,1.1,0,0,1,0,.57c-.07.18-.26.22-.43.24-.42,0-.83,0-1.24,0a1.59,1.59,0,0,0-.58.06c-.17.07-.16.28-.17.43s0,.39.2.43a3.33,3.33,0,0,0,.63,0c.32,0,.92-.06,1,.36a.68.68,0,0,1-.07.52.56.56,0,0,1-.49.17l-.61,0H643a.38.38,0,0,0-.28,0,.24.24,0,0,0-.06.23,2.62,2.62,0,0,1,0,.28c0,.08,0,.18,0,.24a.27.27,0,0,0,.24.08h.59a8.25,8.25,0,0,1,1.22,0C645,413.5,645.14,413.6,645.14,413.81Z" transform="translate(-607.11 -353.51)"/><path class="cls-1" d="M650.49,410c.08.25.22.47.32.71s.24.54.36.82a4.83,4.83,0,0,1,.35.81,9.26,9.26,0,0,0,.59,1.51c.09.22.22.55-.1.66a1,1,0,0,1-.39,0,.55.55,0,0,1-.4-.14c-.16-.17-.14-.52-.41-.6a2.38,2.38,0,0,0-.65,0c-.22,0-.43,0-.63,0a2.11,2.11,0,0,0-.36,0,.44.44,0,0,0-.28.25c-.14.25-.25.44-.55.45s-.59,0-.62-.3a.63.63,0,0,1,.11-.35l.17-.4c.12-.26.26-.5.37-.76a8.49,8.49,0,0,0,.31-.89c.11-.28.29-.53.41-.83s.26-.57.37-.87a1.28,1.28,0,0,1,.16-.38.43.43,0,0,1,.39-.18C650.3,409.52,650.41,409.71,650.49,410Zm0,2.58a2.19,2.19,0,0,0-.2-.44l-.11-.22a1,1,0,0,0-.11-.24c-.15-.16-.26.12-.31.23s-.13.28-.18.43-.15.32-.05.43.27.06.39.06S650.59,412.9,650.48,412.54Z" transform="translate(-607.11 -353.51)"/><path class="cls-1" d="M655,409.58a.75.75,0,0,1,.33-.07,1.19,1.19,0,0,1,.42,0c.27.1.22.38.2.61s0,.56,0,.84,0,.51,0,.77a4,4,0,0,1,0,.84c0,.12,0,.24,0,.37a.58.58,0,0,0,0,.41c.13.17.52.08.71.06a1.7,1.7,0,0,1,.39,0l.43,0c.22,0,.52-.07.64.18a.87.87,0,0,1,.07.35.92.92,0,0,1,0,.37c-.12.3-.49.24-.74.22a3.48,3.48,0,0,0-.79,0,4.29,4.29,0,0,1-.8,0,2,2,0,0,1-.78,0c-.23-.09-.26-.4-.28-.61s0-.63,0-.94,0-.6.05-.9-.06-.61-.05-.92,0-.56,0-.84v0h0C654.89,410,654.84,409.73,655,409.58Z" transform="translate(-607.11 -353.51)"/><path class="cls-1" d="M662.45,409.49a5.51,5.51,0,0,1,.81,0c.27,0,.51.12.53.42s0,.56-.3.65-.57,0-.83.07-.24.46-.23.68c.06.54,0,1.07,0,1.61a7.4,7.4,0,0,1,0,.82c0,.26.07.58-.22.71a1.35,1.35,0,0,1-.34.06.47.47,0,0,1-.43-.09c-.2-.18-.09-.49-.09-.74s0-.49,0-.73,0-.52,0-.78.05-.55.05-.83v-.45c0-.11,0-.22-.12-.26a1.33,1.33,0,0,0-.49,0,1.24,1.24,0,0,1-.43,0c-.28-.11-.28-.5-.22-.75s.47-.28.74-.3l.84,0C661.92,409.46,662.19,409.5,662.45,409.49Z" transform="translate(-607.11 -353.51)"/><path class="cls-1" d="M670.54,413.67c0,.21,0,.42,0,.61a.39.39,0,0,1-.36.31.9.9,0,0,1-.56-.09.76.76,0,0,1-.19-.52,4.39,4.39,0,0,1,0-.63v-.27a1,1,0,0,0,0-.35c-.06-.18-.33-.13-.48-.12h-1a.74.74,0,0,0-.3,0c-.16.1-.11.35-.11.49s0,.43,0,.65a1.2,1.2,0,0,1-.05.57.44.44,0,0,1-.44.18.63.63,0,0,1-.49-.12,1,1,0,0,1-.16-.55c0-.2,0-.41,0-.62a3.61,3.61,0,0,0,0-.66,4.49,4.49,0,0,1,0-.64c0-.21,0-.42,0-.63,0-.41,0-.81,0-1.21,0-.18,0-.38.2-.47a.55.55,0,0,1,.26,0,1.63,1.63,0,0,1,.31,0,.35.35,0,0,1,.26.36c0,.21,0,.41,0,.62s0,.41,0,.61.12.3.35.32c.4,0,.82,0,1.22,0,.18,0,.3-.06.32-.26a2.56,2.56,0,0,0,0-.62,2,2,0,0,1,0-.65.46.46,0,0,1,.26-.41.94.94,0,0,1,.62,0,.46.46,0,0,1,.21.37c0,.06,0,.6,0,.6v0c0,.41-.05.82,0,1.22a4.14,4.14,0,0,1,0,.61c0,.2,0,.41,0,.62S670.56,413.46,670.54,413.67Z" transform="translate(-607.11 -353.51)"/><path class="cls-1" d="M674.65,413.07a3.15,3.15,0,0,0,0-.92,1.72,1.72,0,0,0-.4-.71,4.61,4.61,0,0,1-.5-.72l-.22-.35a3,3,0,0,1-.26-.36c-.14-.24.09-.48.33-.5a.78.78,0,0,1,.71.14,2.39,2.39,0,0,1,.47.67c.06.16.27.69.49.59s.17-.21.23-.3.18-.25.27-.38a2.31,2.31,0,0,0,.25-.36.64.64,0,0,1,.24-.3.73.73,0,0,1,.41-.05.79.79,0,0,1,.41.06c.25.17.09.43,0,.61s-.29.49-.44.71a3.32,3.32,0,0,0-.79,1.46c0,.3,0,.59,0,.88l0,.5c0,.15,0,.29,0,.42,0,.36-.47.38-.74.36a.42.42,0,0,1-.35-.19,1.12,1.12,0,0,1-.06-.45C674.66,413.61,674.65,413.34,674.65,413.07Z" transform="translate(-607.11 -353.51)"/><path class="cls-1" d="M685.66,414.43a1.92,1.92,0,0,1-.88-.57,3,3,0,0,1-.59-.88,2,2,0,0,1-.13-.48,3.21,3.21,0,0,1,0-.54,2.35,2.35,0,0,1,0-.53,1.58,1.58,0,0,1,.17-.49,3.94,3.94,0,0,1,.31-.48c.1-.14.21-.27.32-.41a1.86,1.86,0,0,1,.94-.52l.56-.13a1,1,0,0,1,.48,0,3.5,3.5,0,0,1,1,.33c.36.2.12.59-.08.81s-.6,0-.92,0a2,2,0,0,0-.78,0,1,1,0,0,0-.43.31,2.53,2.53,0,0,0-.33.42,1.61,1.61,0,0,0-.15.89,1.44,1.44,0,0,0,.38.86,1.28,1.28,0,0,0,.43.3,1.64,1.64,0,0,0,.44.09,1.69,1.69,0,0,0,.94-.18.86.86,0,0,1,.48-.16.92.92,0,0,1,.45.3.44.44,0,0,1,.12.42c-.06.16-.27.28-.4.37a2.61,2.61,0,0,1-1,.35l-.38,0A3.78,3.78,0,0,1,685.66,414.43Z" transform="translate(-607.11 -353.51)"/><path class="cls-1" d="M695.16,413.67a4.14,4.14,0,0,1,0,.61.38.38,0,0,1-.35.31.9.9,0,0,1-.56-.09.76.76,0,0,1-.19-.52c0-.21,0-.41,0-.63l0-.27a.83.83,0,0,0,0-.35c-.06-.18-.32-.13-.47-.12h-1a.8.8,0,0,0-.31,0c-.15.1-.1.35-.1.49s0,.43,0,.65a1.2,1.2,0,0,1,0,.57c-.09.17-.28.18-.45.18a.64.64,0,0,1-.49-.12,1,1,0,0,1-.15-.55,4.4,4.4,0,0,1,0-.62,3.61,3.61,0,0,0,0-.66c0-.21,0-.42,0-.64s0-.42,0-.63c0-.41,0-.81,0-1.21,0-.18,0-.38.19-.47a.61.61,0,0,1,.27,0,1.51,1.51,0,0,1,.3,0,.36.36,0,0,1,.27.36c0,.21,0,.41,0,.62s0,.41,0,.61.12.3.35.32c.4,0,.81,0,1.22,0,.18,0,.3-.06.32-.26a3.18,3.18,0,0,0,0-.62,1.77,1.77,0,0,1,0-.65.47.47,0,0,1,.25-.41.94.94,0,0,1,.62,0,.45.45,0,0,1,.22.37c0,.06,0,.6,0,.6v0a10,10,0,0,0,0,1.22,4.14,4.14,0,0,1,0,.61c0,.2,0,.41,0,.62A4.46,4.46,0,0,1,695.16,413.67Z" transform="translate(-607.11 -353.51)"/><path class="cls-1" d="M703,411.74a2.18,2.18,0,0,1,0,.72,3.85,3.85,0,0,1-.25.88,1.75,1.75,0,0,1-.56.65,2.53,2.53,0,0,1-.77.42,2.59,2.59,0,0,1-.91.18,2.7,2.7,0,0,1-1.46-.45,2.1,2.1,0,0,1-.55-.6,2.82,2.82,0,0,1-.34-.67,2.52,2.52,0,0,1-.06-1.56,3.06,3.06,0,0,1,.83-1.31,2.68,2.68,0,0,1,.68-.38,3,3,0,0,1,.78-.22,2,2,0,0,1,.76.06,2,2,0,0,1,.73.32,4.4,4.4,0,0,1,.58.56,1.84,1.84,0,0,1,.41.64A3.3,3.3,0,0,1,703,411.74Zm-1.13-.11a1.54,1.54,0,0,0-.4-.74,1.39,1.39,0,0,0-1.6-.15,1.52,1.52,0,0,0-.25,2.41,1.56,1.56,0,0,0,1,.3,1.26,1.26,0,0,0,.43,0,.9.9,0,0,0,.34-.2,1.35,1.35,0,0,0,.49-.71A1.52,1.52,0,0,0,701.85,411.63Z" transform="translate(-607.11 -353.51)"/><path class="cls-1" d="M706.15,414.52a.54.54,0,0,1-.23-.41,7.65,7.65,0,0,1,.06-1.17,7.84,7.84,0,0,0-.05-1.19,12,12,0,0,1,0-1.2v-.63a.38.38,0,0,1,.28-.39,1,1,0,0,1,.6,0,.52.52,0,0,1,.21.48c0,.1.07,1.29.06,1.29h0c0,.38,0,.76,0,1.14,0,.21,0,.41,0,.62s0,.4,0,.6a2.41,2.41,0,0,1,0,.6.42.42,0,0,1-.37.29A1,1,0,0,1,706.15,414.52Z" transform="translate(-607.11 -353.51)"/><path class="cls-1" d="M711.62,414.43a2,2,0,0,1-.88-.57,2.8,2.8,0,0,1-.58-.88,2,2,0,0,1-.14-.48,3.21,3.21,0,0,1,0-.54,2.35,2.35,0,0,1,0-.53,1.58,1.58,0,0,1,.17-.49,3.94,3.94,0,0,1,.31-.48c.1-.14.21-.27.32-.41a1.85,1.85,0,0,1,.95-.52l.55-.13a1,1,0,0,1,.48,0,3.5,3.5,0,0,1,1,.33c.36.2.12.59-.08.81s-.6,0-.92,0a2,2,0,0,0-.78,0,1.1,1.1,0,0,0-.43.31,3.2,3.2,0,0,0-.33.42,1.61,1.61,0,0,0-.15.89,1.44,1.44,0,0,0,.38.86,1.39,1.39,0,0,0,.43.3,1.72,1.72,0,0,0,.44.09,1.69,1.69,0,0,0,.94-.18.86.86,0,0,1,.48-.16.92.92,0,0,1,.45.3.44.44,0,0,1,.12.42c-.06.16-.27.28-.4.37a2.56,2.56,0,0,1-1,.35l-.37,0A3.78,3.78,0,0,1,711.62,414.43Z" transform="translate(-607.11 -353.51)"/><path class="cls-1" d="M720.63,413.81a1.22,1.22,0,0,1-.07.57.46.46,0,0,1-.46.17,4.68,4.68,0,0,0-.65,0c-.43,0-.87,0-1.3,0h-.61c-.16,0-.42.05-.5-.13a1.3,1.3,0,0,1,0-.59c0-.21,0-.41,0-.62s0-.41,0-.62,0-.41,0-.62a3,3,0,0,1,0-.6c0-.22,0-.44,0-.66s0-.42,0-.63-.07-.43.1-.53.38,0,.54,0l.6,0a7.45,7.45,0,0,0,1.25,0c.31,0,.93-.13,1,.29a1.22,1.22,0,0,1,0,.57.49.49,0,0,1-.44.24c-.42,0-.83,0-1.24,0a1.59,1.59,0,0,0-.58.06c-.17.07-.16.28-.17.43s0,.39.2.43a3.33,3.33,0,0,0,.63,0c.32,0,.92-.06,1,.36a.68.68,0,0,1-.07.52.56.56,0,0,1-.49.17l-.61,0h-.3a.4.4,0,0,0-.29,0,.24.24,0,0,0-.06.23,2.62,2.62,0,0,1,0,.28c0,.08,0,.18,0,.24a.27.27,0,0,0,.24.08h.59a8.25,8.25,0,0,1,1.22,0C720.46,413.5,720.63,413.6,720.63,413.81Z" transform="translate(-607.11 -353.51)"/><path class="cls-1" d="M726.15,409.59c.26.1.74.37.61.72a.93.93,0,0,1-.36.4.52.52,0,0,1-.55,0,1.19,1.19,0,0,0-1.06-.16c-.14.07-.31.22-.28.4a.62.62,0,0,0,.32.37c.18.1.39.16.57.24a3.82,3.82,0,0,0,.53.2,1.35,1.35,0,0,1,.89.61,2.57,2.57,0,0,1,.21.52.86.86,0,0,1,0,.55,1.92,1.92,0,0,1-1.68,1.26,3.68,3.68,0,0,1-.58-.06,4.68,4.68,0,0,1-.54-.08,2.61,2.61,0,0,1-.54-.24c-.13-.08-.37-.2-.43-.36s.1-.36.18-.49a.48.48,0,0,1,.43-.25,1.59,1.59,0,0,1,.51.24,1.54,1.54,0,0,0,.54.17,1.18,1.18,0,0,0,.56,0c.14-.05.36-.18.37-.35s-.19-.33-.33-.4a3.18,3.18,0,0,0-.53-.24,11.42,11.42,0,0,1-1.06-.49,1.33,1.33,0,0,1-.6-.92,1.52,1.52,0,0,1,0-.52,1.07,1.07,0,0,1,.28-.48,2.74,2.74,0,0,1,.44-.38,1.5,1.5,0,0,1,.47-.28,3,3,0,0,1,.54-.07A3.1,3.1,0,0,1,726.15,409.59Z" transform="translate(-607.11 -353.51)"/><path class="cls-1" d="M734,411.44a2.91,2.91,0,0,1,.66,0c.22,0,.43,0,.65,0a2.5,2.5,0,0,1,.67,0c.24.06.31.28.33.5s0,.41-.17.54-.42.05-.62.05h-1.15a1.28,1.28,0,0,1-.39,0,.35.35,0,0,1-.23-.2s-.06-.32,0-.32C733.72,411.75,733.74,411.5,734,411.44Z" transform="translate(-607.11 -353.51)"/><path class="cls-1" d="M675.74,369c1.71-.28,4.45,1.59,4.45,3,.33-1.43-5.16,20.83-3.24,21.32,1.7.22,8-19.07,9-20.17.11-.16.83.28.77.5-2.74,8.35-6.37,22.64-9.5,23.57-1.43.44-7-1.81-7-6.54,0-3.62,1.53-9.06,1.92-11.43.05-.38-.39-.6-.6-.27-3,3-6.55,11.59-9.62,11.76a4.88,4.88,0,0,1-5-4.89c-.11-4.23,1.54-14,9-18,1.38-.72,8,1.92,7.53,3.9,0,.22.28.27.33.11C674.26,370.82,674.37,369,675.74,369Zm-6.87,2.36c-2.42,0-7.2,11.6-6,15,.94,1.87,8.3-10.22,8.47-12a3.72,3.72,0,0,0-.61-2.64C670.41,371.2,669.26,371.31,668.87,371.31Z" transform="translate(-607.11 -353.51)"/><path class="cls-1" d="M698.88,374c-1.76,4.56-5.06,15.66-9.18,15.66s-6.1-4.51-6.21-8.08c0-.22.77-12.75,2.58-13.63,1-1.54,4.46,1.16,4.46,2.86.21.77-1.43,11.38-1.32,13,0,.93.33,3.46,2.14,2.75,1.37-.33,6-12.48,6.65-13.3.16-.28.66-.17.93,0C699,373.34,698.93,373.78,698.88,374Zm-10.77-19.51c2.25-.72,5.49.66,4.89,3-.17.77-1.21,3.85-1.65,4.18-.5.49-3.46,0-4.18-.72C686.24,360.21,687.06,355.1,688.11,354.44Z" transform="translate(-607.11 -353.51)"/><path class="cls-1" d="M724.21,375.65c-1.43,2-7.86,17.26-11.21,17.26-2.36,0-5.16-3.08-5.22-4.89-.71-6.49,5.06-17.53,5.06-19.79,0-.44-.5-.66-.72-.66-2.09,0-12.75,19-11,23.63-.38,1.16-5.6.06-5.6-3.51,0-5,1.81-19,3-21.33,1.32,0,4.78,1.21,4.78,2.64,0,2-2.36,8.35-2.36,11.1a1.23,1.23,0,0,0,.44.94c.93-3.8,9.67-18.91,12.58-18.91,1.59,0,4.4,2,4.4,4.12-.17,6.38-5.88,16.16-5.11,22.54a.52.52,0,0,0,.6.22c3.79-3,6.65-10.94,9.45-14.84C724.43,372.24,725,374.33,724.21,375.65Z" transform="translate(-607.11 -353.51)"/><path class="cls-1" d="M745,374.94c-2.58,3.95-8.85,14.62-15,14.62-4,0-8.57-3.47-8.57-7.92,0-6.81,3.46-16.93,11.27-16.93a6.18,6.18,0,0,1,4.78,4.73c.44,3.85-6.27,6.65-8.9,6.71-1.38,0-1.49,6-1.43,7.31,0,1.53,1,3,3.46,3,4.62,0,11.71-11.05,12.09-11.49.6-.11,2-1.21,2.53-.44Zm-11.82-6.87a6.88,6.88,0,0,0-4.5,4.72c-.33,1.1,1.09,1,1.59.94,2.31-.44,4.4-2.15,4.84-3.35C735.32,369.06,734.6,367.9,733.17,368.07Z" transform="translate(-607.11 -353.51)"/><path class="cls-1" d="M752.68,368.56c-1.87,2.91-1.48-.44-2.25-1.21-.5-.49-5.66,3.63-5.66,5.88,0,3.58,4.83,7.81,4.83,7.81.72-.17,7.37-6.6,8.47-7.09.33-.11,1,1,.77,1.59-.44.77-7.15,5.39-7.7,7.2a1.53,1.53,0,0,0,.17.88c3.84,5.66-.33,15.61-7.53,15.61-2.2,0-5.66-2-5.77-5.33,0-2.26,3.13-5.66,5.66-7.7,2.25-1.81,2.91-2.2,1.87-3.79s-5-6.59-5-9.56c0-4.45,5.93-10.61,9.67-10.61C752.63,362.24,753.62,367.13,752.68,368.56Zm-12,24.84c0,.94.88,1.38,1.87,1.38,3.63,0,7.25-4.24,4.89-8.25-.06-.11-.33-.16-.44-.16C745.87,386.37,740.7,391,740.7,393.4Z" transform="translate(-607.11 -353.51)"/><path class="cls-1" d="M648.46,400.09c-4-6.44-3.1-20.93-1-31.9.09-.57-.58-.44-.74-.21-3.85,5.6-11.29,24.06-13.49,24.13-2.82.08-5.65-2-5.53-3.8-.25-2.7,2.09-21.42,2.91-24.21.09-.74-.52-.44-.68,0-8.26,15-12.46,33.93-14.21,34-5.88.17-8.56-2.81-8.62-4.84-.23-8,5-23.88,5-32,2.06-1.07,5,.82,6.83,3.48.05,7.74-2.68,16.86-3.53,24.68,0,.79.43.89.69.15-1.58,3.95,13.37-35.93,17.09-36,2.21-.07,6.49,1.45,6.08,3-2.81,10.48-4.25,23.18-4.81,27.21-.2,1,.38,1.29.8.26,3.72-8,13.51-25.37,15.14-25.53.79,0,4.34,1.63,4.39,3.38.14,4.8-6.82,27.94,3.2,40.2C659.24,403.56,650.05,402.47,648.46,400.09Z" transform="translate(-607.11 -353.51)"/></svg>